REM DIRINDEX 1\2,1\3,1\4
REM DIRNAME folder01,folder02,folder03,folder04
TITLE ""
FILE "Track45.mp3" MP3
  TRACK 01 AUDIO
    TITLE "2:cjc112_208"
    INDEX 01 00:00:00
  TRACK 02 AUDIO
    TITLE "0:"
    INDEX 01 00:01:13
  TRACK 03 AUDIO
    TITLE "3:cjc112_209"
    INDEX 01 00:01:54
  TRACK 04 AUDIO
    TITLE "0:"
    INDEX 01 00:04:27
  TRACK 05 AUDIO
    TITLE "4:cjc112_210"
    INDEX 01 00:07:68
  TRACK 06 AUDIO
    TITLE "0:"
    INDEX 01 00:10:33
